<?xml version="1.0" encoding="utf-8"?>
<!-- Generator: Adobe Illustrator 23.0.4, SVG Export Plug-In . SVG Version: 6.00 Build 0)  -->
<svg version="1.1" id="Layer_1" xmlns="http://www.w3.org/2000/svg" xmlns:xlink="http://www.w3.org/1999/xlink" x="0px" y="0px"
	 viewBox="0 0 252 42" style="enable-background:new 0 0 252 42;" xml:space="preserve">
<style type="text/css">
	.st0{fill:#242FBC;}
	.st1{fill-rule:evenodd;clip-rule:evenodd;fill:#242FBC;}
</style>
<g>
	<g>
		<path class="st0" d="M61.2,18.4c0,1.2-1.5,2.8-4.4,2.8c-2.2,0-3.7-1.3-3.7-3.2c0-2.2,1.2-2.3,1.2-2.9c0-0.3-0.2-0.4-0.6-0.4
			c-1.2,0-2.7,1.7-3.6,5.2L48,28.7l1.9,1l-0.7,2.9l-2.5,0.9h-4.8l-2-2.9l2.9-11.8c0.4-1.6,0.6-3.5-0.9-4.2l0.8-3.3l2.7-0.9h4.4
			l0.6,3.5c1.6-2.6,3.9-3.9,6.6-3.9s4.1,1.6,4.1,3.9c0,1.5-0.9,2.2-0.9,3.2C60.4,18,61.2,17.8,61.2,18.4z"/>
		<path class="st0" d="M73.1,29.5c2.6,0,4.3-0.9,6-2.1c1-0.7,2,0.2,1.5,1.2c-1.2,2.6-3.8,5.4-9.7,5.4c-6.8,0-10.3-3.8-8.5-10.8
			l0.9-3.8c1.6-6.5,4.9-9.4,11.6-9.4c5.6,0,8.4,2.4,8.4,7.1c0,4.7-2.1,6.1-6.6,6.7l-6.8,0.9C69.2,28.1,70,29.5,73.1,29.5z M75.9,20
			l0.3-1.3c0.7-2.8,0.3-3.8-1.7-3.8c-2.2,0-2.5,1-3,3.3l-0.6,2.6L75.9,20z"/>
		<path class="st0" d="M85.8,19.1c1.6-6.6,4.8-9,10.8-9c3.3,0,4.2,1.2,4.9,1.2c0.6,0,0.9-0.2,1.3-1h2.7l-2,8.2h-3
			c-0.1-2.2-0.8-3.7-2.8-3.7c-2.4,0-2.9,0.9-3.5,3.5L92.5,25c-0.7,2.7-0.4,4.4,3,4.4c2.5,0,3.8-0.8,4.9-1.8c1.2-1,2.1,0.2,1.5,1.4
			c-1.2,2.7-4.1,4.9-8.9,4.9c-7.3,0-9.7-4.7-8.1-11L85.8,19.1z"/>
		<path class="st0" d="M130.1,24.2l-0.5,2c-1.4,5.6-4.9,7.3-10.9,7.3h-12.8l-2.4-1.1l0.7-2.9l2.1-0.9l5.2-20.6l-1.7-0.7l0.7-2.9
			l2.5-1.1h11.2c6.5,0,9.4,2.8,8.1,8.5l-0.3,1.2c-0.7,2.8-2.2,4.1-5.2,4.8C129.6,18.5,130.9,21.4,130.1,24.2z M117.2,28.4
			c2.4,0,3.3-0.4,3.9-2.8l0.6-2.2c0.6-2.6-0.1-3.1-2.6-3.1h-2.4l-2.1,8.2H117.2z M120,15.5c2.4,0,3-0.4,3.5-2.5l0.5-1.8
			c0.6-2.3-0.1-2.9-2.4-2.9h-2l-1.8,7.2H120z"/>
		<path class="st0" d="M143.8,33.7h-3.5c-5.1,0-8.7-4.4-7.1-10.9l0.9-3.8c1.4-5.6,4.7-8.8,9.9-8.8h3.5c5.3,0,8.8,3.9,7.1,10.9
			l-0.9,3.8C152.3,30.5,149,33.7,143.8,33.7z M145.6,25.5l1.6-6.7c0.6-2.6,0.3-3.8-1.8-3.8c-2,0-2.4,0.6-3,3.2l-1.6,6.7
			c-0.6,2.6-0.3,3.8,1.8,3.8C144.6,28.8,145,28.2,145.6,25.5z"/>
		<path class="st0" d="M167.5,33.7h-3.5c-5.1,0-8.7-4.4-7.1-10.9l0.9-3.8c1.4-5.6,4.7-8.8,9.9-8.8h3.5c5.3,0,8.8,3.9,7.1,10.9
			l-0.9,3.8C176,30.5,172.7,33.7,167.5,33.7z M169.3,25.5l1.6-6.7c0.6-2.6,0.3-3.8-1.8-3.8c-2,0-2.4,0.6-3,3.2l-1.6,6.7
			c-0.6,2.6-0.3,3.8,1.8,3.8C168.3,28.8,168.7,28.2,169.3,25.5z"/>
		<path class="st0" d="M188.7,25.9l-0.7,2.7l1.7,1l-0.7,2.9l-2.3,0.9h-4.8l-2-2.9l5.7-22.7l-1.5-1l0.8-3.3l2.8-1.1h4.9l1.4,2.4
			l-3.6,14.5c3.3-2.6,6.2-6,7.9-8.9h4.1l1.8,1.3l-0.7,2.9l-2.9,1.2c-0.9,1.3-2.1,2.6-3.5,4l3,9l1.8,1l-0.7,2.9l-2.3,0.9h-3.6
			l-2.2-2.2l-2.2-6.8C190.1,25.1,189.4,25.5,188.7,25.9z"/>
		<path class="st0" d="M215.3,29.5c2.6,0,4.3-0.9,6-2.1c1-0.7,2,0.2,1.5,1.2c-1.2,2.6-3.8,5.4-9.7,5.4c-6.8,0-10.3-3.8-8.5-10.8
			l0.9-3.8c1.6-6.5,4.9-9.4,11.6-9.4c5.6,0,8.4,2.4,8.4,7.1c0,4.7-2.1,6.1-6.6,6.7l-6.8,0.9C211.4,28.1,212.2,29.5,215.3,29.5z
			 M218.1,20l0.3-1.3c0.7-2.8,0.3-3.8-1.7-3.8c-2.2,0-2.5,1-3,3.3l-0.6,2.6L218.1,20z"/>
		<path class="st0" d="M247.9,18.4c0,1.2-1.5,2.8-4.4,2.8c-2.2,0-3.7-1.3-3.7-3.2c0-2.2,1.2-2.3,1.2-2.9c0-0.3-0.2-0.4-0.6-0.4
			c-1.2,0-2.7,1.7-3.6,5.2l-2.2,8.8l1.9,1l-0.7,2.9l-2.5,0.9h-4.8l-2-2.9l2.9-11.8c0.4-1.6,0.6-3.5-0.9-4.2l0.8-3.3l2.7-0.9h4.4
			l0.6,3.5c1.6-2.6,3.9-3.9,6.6-3.9s4.1,1.6,4.1,3.9c0,1.5-0.9,2.2-0.9,3.2C247.1,18,247.9,17.8,247.9,18.4z"/>
	</g>
	<g>
		<g>
			<g>
				<path class="st0" d="M3.2,20.4c-0.3-0.1-0.5-0.3-0.7-0.5C2.2,19.5,2,19,2,18.6c0-0.5,0.2-1,0.5-1.3C2.7,17,3,16.8,3.2,16.7
					c0,0.2-0.1,0.4-0.1,0.6C2.9,18.4,3,19.4,3.2,20.4L3.2,20.4z"/>
				<path class="st1" d="M31.1,10.4H12.8c-2.3,0-4.5,0.7-6.2,2c-1.6,1.2-2.7,2.9-3,5.1c-0.4,2.4,0.4,4.5,1.7,6.2
					c0.7,0.8,1.5,1.5,2.4,2c0.9,0.5,1.9,0.9,2.9,1c2,0.3,4-0.1,5.8-1.6c2-1.6,2.7-3.9,3.2-5.8c0.6-2.2,1.2-4,3.4-4v0h8.1
					c0.1,0,0.2-0.1,0.2-0.2v-4.4C31.3,10.5,31.2,10.4,31.1,10.4L31.1,10.4z M14.3,21.4c-0.7,0.7-1.7,1.2-2.8,1.2
					c-1.1,0-2.1-0.4-2.8-1.2c-0.7-0.7-1.2-1.7-1.2-2.8c0-1.1,0.4-2.1,1.2-2.8c0.7-0.7,1.7-1.2,2.8-1.2c1.1,0,2.1,0.4,2.8,1.2
					c0.7,0.7,1.2,1.7,1.2,2.8C15.5,19.7,15,20.7,14.3,21.4L14.3,21.4L14.3,21.4z"/>
			</g>
		</g>
		<g>
			<g>
				<path class="st0" d="M36.8,23.4c0.3,0.1,0.5,0.3,0.7,0.5c0.3,0.4,0.5,0.8,0.5,1.3c0,0.5-0.2,1-0.5,1.3c-0.2,0.2-0.4,0.4-0.7,0.5
					c0-0.2,0.1-0.4,0.1-0.6C37,25.4,37,24.4,36.8,23.4L36.8,23.4z"/>
				<path class="st1" d="M8.9,33.4h18.2c2.3,0,4.5-0.7,6.2-2c1.6-1.2,2.7-2.9,3-5.1c0.4-2.4-0.4-4.5-1.7-6.2c-0.7-0.8-1.5-1.5-2.4-2
					c-0.9-0.5-1.9-0.9-2.9-1c-2-0.3-4,0.1-5.8,1.6c-2,1.6-2.7,3.9-3.2,5.8c-0.6,2.2-1.2,4-3.4,4v0H8.9c-0.1,0-0.2,0.1-0.2,0.2v4.4
					C8.7,33.3,8.8,33.4,8.9,33.4L8.9,33.4z M25.7,22.4c0.7-0.7,1.7-1.2,2.8-1.2c1.1,0,2.1,0.4,2.8,1.2c0.7,0.7,1.2,1.7,1.2,2.8
					c0,1.1-0.4,2.1-1.2,2.8c-0.7,0.7-1.7,1.2-2.8,1.2c-1.1,0-2.1-0.4-2.8-1.2c-0.7-0.7-1.2-1.7-1.2-2.8
					C24.5,24.1,24.9,23.1,25.7,22.4L25.7,22.4L25.7,22.4z"/>
			</g>
		</g>
	</g>
	<g>
		<path class="st0" d="M37.7,38.3c8.6-0.2,17.3-0.3,25.9-0.5l25.9-0.3c17.3-0.2,34.6-0.1,51.9-0.2c17.3,0.1,34.6,0.1,51.9,0.2
			l25.9,0.3c8.6,0.2,17.3,0.3,25.9,0.5c-8.6,0.2-17.3,0.3-25.9,0.5L193.2,39c-17.3,0.2-34.6,0.2-51.9,0.2
			c-17.3-0.1-34.6-0.1-51.9-0.2l-25.9-0.3C55,38.6,46.3,38.5,37.7,38.3z"/>
	</g>
</g>
</svg>
